<svg width="1200" height="360" viewBox="0 0 1200 360" fill="none" xmlns="http://www.w3.org/2000/svg">
  <defs>
    <linearGradient id="accent" x1="110" y1="0" x2="1090" y2="0" gradientUnits="userSpaceOnUse">
      <stop stop-color="#168C78"/><stop offset="0.5" stop-color="#2F78A9"/><stop offset="1" stop-color="#6752B6"/>
    </linearGradient>
    <marker id="arrow" markerWidth="8" markerHeight="8" refX="7" refY="4" orient="auto"><path d="M0 0L8 4L0 8Z" fill="#8194A8"/></marker>
  </defs>
  <rect width="1200" height="360" rx="24" fill="#F8FAFC" stroke="#D6E0E8"/>
  <text x="600" y="52" text-anchor="middle" fill="#1C2C40" font-size="24" font-family="Inter,Segoe UI,Arial,sans-serif" font-weight="700">Evidence-aware analysis pipeline</text>

  <g font-family="Inter,Segoe UI,Arial,sans-serif">
    <g><rect x="72" y="132" width="138" height="72" rx="14" fill="#FFFFFF" stroke="#C9D7E3"/><text x="141" y="162" text-anchor="middle" fill="#1E2D3F" font-size="17" font-weight="700">.SOR</text><text x="141" y="185" text-anchor="middle" fill="#6F8194" font-size="13">read-only input</text></g>
    <g><rect x="262" y="112" width="176" height="112" rx="14" fill="#FFFFFF" stroke="#C9D7E3"/><text x="350" y="151" text-anchor="middle" fill="#1E2D3F" font-size="16" font-weight="700">Safe scanner</text><text x="350" y="176" text-anchor="middle" fill="#6F8194" font-size="13">blocks · bounds</text><text x="350" y="197" text-anchor="middle" fill="#6F8194" font-size="13">metadata · samples</text></g>
    <g><rect x="490" y="82" width="200" height="84" rx="14" fill="#F2FBF9" stroke="#A8D6CD"/><text x="590" y="117" text-anchor="middle" fill="#176F62" font-size="16" font-weight="700">Profile & normalization</text><text x="590" y="141" text-anchor="middle" fill="#5F817E" font-size="13">rules · confidence · raw value</text></g>
    <g><rect x="490" y="198" width="200" height="84" rx="14" fill="#F1F7FB" stroke="#B4CFE0"/><text x="590" y="233" text-anchor="middle" fill="#2A678F" font-size="16" font-weight="700">Trace reconstruction</text><text x="590" y="257" text-anchor="middle" fill="#6E8498" font-size="13">distance axis · curve</text></g>
    <g><rect x="742" y="132" width="190" height="72" rx="14" fill="#F6F3FC" stroke="#CBC1E7"/><text x="837" y="161" text-anchor="middle" fill="#65549D" font-size="16" font-weight="700">Event layer</text><text x="837" y="185" text-anchor="middle" fill="#81779C" font-size="13">stored ≠ calculated</text></g>
    <g><rect x="984" y="112" width="148" height="112" rx="14" fill="#FFFFFF" stroke="#C9D7E3"/><text x="1058" y="147" text-anchor="middle" fill="#1E2D3F" font-size="16" font-weight="700">Viewer model</text><text x="1058" y="174" text-anchor="middle" fill="#6F8194" font-size="13">local UI</text><text x="1058" y="195" text-anchor="middle" fill="#6F8194" font-size="13">JSON · CSV</text></g>
  </g>

  <g stroke="#8194A8" stroke-width="2" marker-end="url(#arrow)">
    <path d="M210 168H250"/>
    <path d="M438 151H478"/>
    <path d="M438 189C462 189 466 240 478 240"/>
    <path d="M690 124C720 124 716 168 730 168"/>
    <path d="M690 240C724 240 714 183 730 183"/>
    <path d="M932 168H972"/>
  </g>
  <path d="M80 316H1120" stroke="url(#accent)" stroke-width="3" stroke-linecap="round"/>
  <text x="600" y="338" text-anchor="middle" fill="#708397" font-size="13" font-family="Inter,Segoe UI,Arial,sans-serif">structure first · interpretation second · provenance preserved</text>
</svg>