<svg xmlns="http://www.w3.org/2000/svg" width="1400" height="330" viewBox="0 0 1400 330"><style>.bg{fill:#f1f3f5}.grid{stroke:#73808c}.card{fill:#e5e8eb;stroke:#c3c9cf}.title{fill:#202a33}.sub{fill:#5f6b76}.teal{fill:#2f7f78}.blue{fill:#3f73a6}.violet{fill:#675a9e}.arrow{stroke:#7a8793}.foot{fill:#6c7782}@media(prefers-color-scheme:dark){.bg{fill:#11161d}.grid{stroke:#708196}.card{fill:#232931;stroke:#434d57}.title{fill:#f0f3f5}.sub{fill:#a5b0ba}.teal{fill:#65d6c3}.blue{fill:#72b7ef}.violet{fill:#a48cff}.arrow{stroke:#53677a}.foot{fill:#8192a3}}</style><rect class="bg" width="1400" height="330" rx="20"/><g opacity=".16" class="grid" stroke-width="1"><path d="M40 84H1360M40 142H1360M40 200H1360M40 258H1360"/><path d="M165 55V280M430 55V280M715 55V280M1000 55V280M1260 55V280"/></g><g font-family="Segoe UI,Arial,sans-serif"><text x="45" y="40" class="sub" font-size="14" font-weight="700" letter-spacing="2">OTDR INSIDE · CADENA DE ANÁLISIS</text><g><rect class="card" x="55" y="110" width="175" height="105" rx="14"/><text x="80" y="140" class="teal" font-size="13" font-weight="700">ENTRADA</text><text x="80" y="173" class="title" font-size="24" font-weight="700">.SOR</text><text x="80" y="196" class="sub" font-size="13">solo lectura</text></g><g><rect class="card" x="300" y="95" width="220" height="135" rx="14"/><text x="325" y="127" class="teal" font-size="13" font-weight="700">ESTRUCTURA</text><text x="325" y="160" class="title" font-size="20" font-weight="700">Lectura segura</text><text x="325" y="188" class="sub" font-size="13">bloques · revisiones · límites</text><text x="325" y="209" class="sub" font-size="13">metadatos · muestras</text></g><g><rect class="card" x="590" y="95" width="245" height="135" rx="14"/><text x="615" y="127" class="blue" font-size="13" font-weight="700">INTERPRETACIÓN</text><text x="615" y="160" class="title" font-size="20" font-weight="700">Perfiles y procedencia</text><text x="615" y="188" class="sub" font-size="13">reglas · confianza</text><text x="615" y="209" class="sub" font-size="13">valor crudo preservado</text></g><g><rect class="card" x="905" y="95" width="215" height="135" rx="14"/><text x="930" y="127" class="violet" font-size="13" font-weight="700">ANÁLISIS</text><text x="930" y="160" class="title" font-size="20" font-weight="700">Traza y eventos</text><text x="930" y="188" class="sub" font-size="13">reconstrucción de distancia</text><text x="930" y="209" class="sub" font-size="13">almacenado ≠ calculado</text></g><g><rect class="card" x="1190" y="110" width="155" height="105" rx="14"/><text x="1215" y="140" class="teal" font-size="13" font-weight="700">SALIDA</text><text x="1215" y="173" class="title" font-size="20" font-weight="700">Visor</text><text x="1215" y="196" class="sub" font-size="13">JSON · CSV</text></g></g><g class="arrow" stroke-width="2.5"><path d="M230 162H285M520 162H575M835 162H890M1120 162H1175"/></g><g class="teal"><path d="M285 162l-10-6v12zM575 162l-10-6v12zM890 162l-10-6v12zM1175 162l-10-6v12z"/></g><text x="45" y="300" class="foot" font-family="Consolas,monospace" font-size="13">estructura primero / interpretación después / procedencia preservada</text></svg>