<svg xmlns="http://www.w3.org/2000/svg" width="1350" height="260" viewBox="0 0 1350 260"><style>.bg{fill:#f1f3f5}.card{fill:#e5e8eb;stroke:#c3c9cf}.t{fill:#202a33}.s{fill:#5f6b76}.a{fill:#2f7f78}.ln{stroke:#7a8793}@media(prefers-color-scheme:dark){.bg{fill:#11161d}.card{fill:#232931;stroke:#434d57}.t{fill:#f0f3f5}.s{fill:#a5b0ba}.a{fill:#65d6c3}.ln{stroke:#53677a}}</style><rect class="bg" width="1350" height="260" rx="20"/><g font-family="Segoe UI,Arial,sans-serif"><rect class="card" x="35" y="72" width="180" height="120" rx="14"/><text class="a" x="55" y="101" font-size="11" font-weight="700">ENTRADAS</text><text class="t" x="55" y="133" font-size="16" font-weight="700">.SOR + .EI verificado</text><text class="s" x="55" y="164" font-size="11">fuentes de solo lectura</text><rect class="card" x="245" y="72" width="180" height="120" rx="14"/><text class="a" x="265" y="101" font-size="11" font-weight="700">ESTRUCTURA</text><text class="t" x="265" y="133" font-size="16" font-weight="700">Lectura segura</text><text class="s" x="265" y="164" font-size="11">límites · bloques · crudo</text><rect class="card" x="455" y="72" width="180" height="120" rx="14"/><text class="a" x="475" y="101" font-size="11" font-weight="700">INTERPRETACIÓN</text><text class="t" x="475" y="133" font-size="16" font-weight="700">Perfiles + evidencia</text><text class="s" x="475" y="164" font-size="11">solo semántica soportada</text><rect class="card" x="665" y="72" width="180" height="120" rx="14"/><text class="a" x="685" y="101" font-size="11" font-weight="700">ANÁLISIS</text><text class="t" x="685" y="133" font-size="16" font-weight="700">Traza · eventos · terminal</text><text class="s" x="685" y="164" font-size="11">calculado ≠ certificado</text><rect class="card" x="875" y="72" width="180" height="120" rx="14"/><text class="a" x="895" y="101" font-size="11" font-weight="700">PROCEDENCIA</text><text class="t" x="895" y="133" font-size="16" font-weight="700">Origen explícito</text><text class="s" x="895" y="164" font-size="11">SOR · EI · calc · revisión</text><rect class="card" x="1085" y="72" width="240" height="120" rx="14"/><text class="a" x="1105" y="101" font-size="11" font-weight="700">SALIDA</text><text class="t" x="1105" y="133" font-size="16" font-weight="700">Visor · JSON · CSV</text><text class="s" x="1105" y="164" font-size="11">presentación local</text><path class="ln" d="M215 132H235" stroke-width="2.2"/><path class="a" d="M245 132l-10-6v12z"/><path class="ln" d="M425 132H445" stroke-width="2.2"/><path class="a" d="M455 132l-10-6v12z"/><path class="ln" d="M635 132H655" stroke-width="2.2"/><path class="a" d="M665 132l-10-6v12z"/><path class="ln" d="M845 132H865" stroke-width="2.2"/><path class="a" d="M875 132l-10-6v12z"/><path class="ln" d="M1055 132H1075" stroke-width="2.2"/><path class="a" d="M1085 132l-10-6v12z"/></g></svg>