<svg width="1400" height="420" viewBox="0 0 1400 420" fill="none" xmlns="http://www.w3.org/2000/svg">
  <defs>
    <linearGradient id="bg" x1="70" y1="20" x2="1320" y2="400" gradientUnits="userSpaceOnUse">
      <stop stop-color="#F8FBFE"/>
      <stop offset="0.58" stop-color="#F1F7FB"/>
      <stop offset="1" stop-color="#F6F4FC"/>
    </linearGradient>
    <linearGradient id="trace" x1="650" y1="0" x2="1300" y2="0" gradientUnits="userSpaceOnUse">
      <stop stop-color="#138A77"/>
      <stop offset="0.52" stop-color="#236FA5"/>
      <stop offset="1" stop-color="#6752B6"/>
    </linearGradient>
  </defs>

  <rect width="1400" height="420" rx="26" fill="url(#bg)"/>
  <rect x="1" y="1" width="1398" height="418" rx="25" stroke="#D5E0E9"/>

  <g opacity="0.34" stroke="#C4D1DC">
    <path d="M650 92H1300"/><path d="M650 152H1300"/><path d="M650 212H1300"/><path d="M650 272H1300"/><path d="M650 332H1300"/>
    <path d="M710 64V354"/><path d="M830 64V354"/><path d="M950 64V354"/><path d="M1070 64V354"/><path d="M1190 64V354"/>
  </g>

  <text x="92" y="126" fill="#142235" font-size="62" font-family="Inter,Segoe UI,Arial,sans-serif" font-weight="750">OTDR Inside</text>
  <text x="94" y="171" fill="#50657D" font-size="23" font-family="Inter,Segoe UI,Arial,sans-serif">Read the trace. Trace the evidence.</text>

  <g font-family="Inter,Segoe UI,Arial,sans-serif">
    <rect x="92" y="220" width="127" height="38" rx="19" fill="#EAF8F5" stroke="#9DCEC4"/>
    <text x="155" y="244" text-anchor="middle" fill="#166E61" font-size="14" font-weight="700">SOR · v0.3.x</text>

    <rect x="232" y="220" width="116" height="38" rx="19" fill="#ECF4FA" stroke="#A8C5DB"/>
    <text x="290" y="244" text-anchor="middle" fill="#2D668E" font-size="14" font-weight="650">local-first</text>

    <rect x="361" y="220" width="116" height="38" rx="19" fill="#F1EEFA" stroke="#C6BCE4"/>
    <text x="419" y="244" text-anchor="middle" fill="#62549A" font-size="14" font-weight="650">read-only</text>
  </g>

  <text x="94" y="315" fill="#2F4358" font-size="17" font-family="Inter,Segoe UI,Arial,sans-serif" font-weight="650">STRUCTURE · TRACE · EVENTS · PROVENANCE</text>
  <text x="94" y="348" fill="#708399" font-size="14" font-family="Inter,Segoe UI,Arial,sans-serif">binary SOR → evidence-aware interpretation</text>

  <path d="M650 288 L680 204 L704 258 L754 266 L806 272 L850 268 L884 238 L905 277 L958 284 L1009 290 L1054 287 L1080 252 L1101 294 L1147 301 L1188 305 L1221 301 L1248 226 L1268 313 L1300 319" stroke="#D7E3EC" stroke-width="12" stroke-linecap="round"/>
  <path d="M650 288 L680 204 L704 258 L754 266 L806 272 L850 268 L884 238 L905 277 L958 284 L1009 290 L1054 287 L1080 252 L1101 294 L1147 301 L1188 305 L1221 301 L1248 226 L1268 313 L1300 319" stroke="url(#trace)" stroke-width="4" stroke-linecap="round" stroke-linejoin="round"/>

  <g font-family="Inter,Segoe UI,Arial,sans-serif" font-size="12" font-weight="700">
    <circle cx="680" cy="204" r="5" fill="#138A77"/><text x="680" y="188" text-anchor="middle" fill="#176F62">E1</text>
    <circle cx="884" cy="238" r="5" fill="#236FA5"/><text x="884" y="222" text-anchor="middle" fill="#285F88">E2</text>
    <circle cx="1080" cy="252" r="5" fill="#396FB1"/><text x="1080" y="236" text-anchor="middle" fill="#365E91">E3</text>
    <circle cx="1248" cy="226" r="5" fill="#6752B6"/><text x="1248" y="210" text-anchor="middle" fill="#5D4B9A">E4</text>
  </g>
</svg>